<svg xmlns="http://www.w3.org/2000/svg" viewBox="149 239 40 40"><path fill="#bddde7" d="m 158.65625,245.05859 c -3.1186,-1.3e-4 -5.65638,2.53765 -5.65625,5.65625 0,6.7e-4 0,10e-4 0,0.002 0.001,0.44248 0.11693,0.87192 0.2207,1.30078 -2.2423,0.3475 -3.98437,2.21389 -3.98437,4.55273 0,2.5849 2.09679,4.68164 4.68164,4.68164 h 16.72461 c 2.58485,0 4.68164,-2.09674 4.68164,-4.68164 0,-2.48863 -1.95869,-4.47873 -4.41016,-4.62695 -0.23448,-2.20717 -2.04471,-3.95703 -4.3125,-3.95703 -0.98318,0.001 -1.88112,0.40711 -2.64648,1.00195 -0.75203,-2.29185 -2.83301,-3.92815 -5.29883,-3.92969 z"/><path fill="#FFF" d="m 175.94727,252.63672 c -3.34819,0.002 -6.17643,2.26592 -7.10157,5.42383 -1.03683,-0.87598 -2.29673,-1.45311 -3.66992,-1.45508 -3.03147,0 -5.45675,2.36628 -5.70117,5.33594 -3.30081,0.12285 -5.94922,2.79397 -5.94922,6.125 0,3.40936 2.76061,6.16992 6.16992,6.16992 h 22.67774 c 3.40931,0 6.16992,-2.76056 6.16992,-6.16992 0,-3.14737 -2.38115,-5.65945 -5.42578,-6.03907 0.16653,-0.62258 0.32204,-1.25049 0.32422,-1.89648 0,-6.7e-4 0,-10e-4 0,-0.002 1.7e-4,-4.13235 -3.36179,-7.49236 -7.49414,-7.49219 z"/></svg>