<svg xmlns="http://www.w3.org/2000/svg" viewBox="0 0 220.36 192.87"><defs><linearGradient id="a" x1="30.51" x2="156.45" y1="-23.99" y2="101.95" gradientUnits="userSpaceOnUse"><stop offset="0" stop-color="#3d424a"/><stop offset="1" stop-color="#2c3039"/></linearGradient><linearGradient id="b" x1="20.69" x2="173.78" y1="48.65" y2="48.65" gradientUnits="userSpaceOnUse"><stop offset="0" stop-color="#fff"/><stop offset="1" stop-color="#fff"/></linearGradient><linearGradient id="c" x1="18.61" x2="175.86" y1="38.23" y2="195.48" gradientUnits="userSpaceOnUse"><stop offset="0" stop-color="#484f59"/><stop offset="1" stop-color="#2a303a"/></linearGradient><linearGradient id="d" x1="105.72" x2="190.11" y1="116.98" y2="201.38" gradientUnits="userSpaceOnUse"><stop offset="0" stop-color="#65cdfd"/><stop offset="1" stop-color="#0784fa"/></linearGradient></defs><path d="M183.35 15.03h-75.94C95.06 15.03 83.93 0 75 0H11.12C4.98 0 0 4.98 0 11.12v48.21c0 6.14 4.98 11.12 11.12 11.12h172.24c6.14 0 11.12-4.98 11.12-11.12V26.15c0-6.14-4.98-11.12-11.12-11.12Z" style="fill:url(#a);stroke-width:0"/><rect width="153.09" height="38.29" x="20.69" y="29.5" rx="7.68" ry="7.68" style="fill:url(#b);stroke-width:0"/><rect width="194.47" height="133.06" y="50.32" rx="11.12" ry="11.12" style="fill:url(#c);stroke-width:0"/><path d="M183.24 192.87c20.5 0 37.12-16.62 37.12-37.12s-16.62-37.12-37.12-37.12c-.49 0-.97.02-1.46.04-6.57-12.44-19.62-20.92-34.66-20.92-20.24 0-36.9 15.36-38.96 35.05-1.71-.3-3.47-.47-5.27-.47-16.71 0-30.26 13.55-30.26 30.26s13.55 30.26 30.26 30.26" style="fill:url(#d);stroke-width:0"/></svg>