<svg xmlns="http://www.w3.org/2000/svg" viewBox="0 0 749.51 559.59"><path style="fill:#fff; stroke-width:0px;" d="M423.96.77c27.19,4.8,45.35,30.73,40.56,57.92l-81.04,459.58c-4.79,27.19-30.73,45.35-57.92,40.56-27.19-4.79-45.35-30.73-40.56-57.92L366.03,41.33c4.79-27.19,30.73-45.35,57.92-40.56ZM226.78,103.02c19.53,19.53,19.53,51.18,0,70.71l-106.07,106.07,106.07,106.07c19.53,19.53,19.53,51.18,0,70.71-19.53,19.53-51.18,19.53-70.71,0L14.64,315.15c-9.38-9.38-14.64-22.1-14.64-35.36s5.27-25.98,14.64-35.35L156.07,103.02c19.53-19.53,51.18-19.53,70.71,0ZM593.44,103.02l141.42,141.42c9.38,9.38,14.64,22.09,14.64,35.35s-5.27,25.98-14.64,35.36l-141.42,141.42c-19.53,19.53-51.18,19.53-70.71,0s-19.53-51.18,0-70.71l106.07-106.07-106.07-106.07c-19.53-19.53-19.53-51.18,0-70.71,19.53-19.53,51.18-19.53,70.71,0Z"/></svg>