<svg xmlns="http://www.w3.org/2000/svg" viewBox="19 19 461 461"><path fill="#303030" d="M202 71c32,-7 65,-7 96,0 3,1 6,-2 6,-5l0 -41c0,-3 -3,-5 -6,-5l-96 0c-3,0 -6,2 -6,5l0 41c0,3 3,6 6,5zm-128 55l2 -2c2,-2 6,-2 8,0l7 7c2,2 5,2 7,0l25 -25c2,-2 2,-5 0,-7l-7 -8c-2,-2 -2,-5 0,-7l2 -2c2,-2 2,-5 0,-7l-17 -17c-2,-2 -5,-2 -7,0l-44 43c-2,2 -2,6 0,8l17 17c2,2 5,2 7,0z"/><circle fill="#17A2FF" cx="250" cy="270" r="210"/><circle fill="#E5E5E5" cx="250" cy="270" r="169"/><path fill="#303030" d="M209 107c-2,0 -3,1 -5,1l6 23c1,2 2,3 3,2 2,0 3,-2 2,-3l-6 -23zm-76 42c-1,1 -2,3 -4,4l17 17c1,1 3,1 4,0 1,-1 1,-3 0,-4l-17 -17zm-45 75c0,1 -1,3 -1,5l23 6c2,0 3,0 3,-2 1,-1 0,-3 -1,-3l-24 -6zm-2 87c1,2 1,3 2,5l24 -6c1,-1 2,-2 1,-4 0,-1 -1,-2 -3,-1l-24 6zm43 76c1,2 2,3 3,4l18 -18c1,-1 1,-2 0,-3 -1,-1 -3,-1 -4,0l-17 17zm75 46c1,0 3,0 5,1l6 -24c1,-2 0,-3 -2,-4 -1,0 -2,1 -3,2l-6 25zm87 1c2,-1 4,-1 5,-1l-6 -25c-1,-1 -2,-2 -3,-2 -2,1 -3,2 -2,4l6 24zm77 -43c1,-1 2,-2 3,-4l-17 -17c-1,-1 -3,-1 -4,0 -1,1 -1,2 0,3l18 18zm44 -75c1,-2 1,-3 2,-5l-24 -6c-2,-1 -3,0 -3,1 -1,2 0,3 1,4l24 6zm1 -87c0,-2 -1,-4 -1,-5l-24 6c-1,0 -2,2 -1,3 0,2 1,2 3,2l23 -6zm-42 -76c-1,-1 -3,-3 -4,-4l-17 17c-1,1 -1,3 0,4 1,1 3,1 4,0l17 -17zm-75 -45c-2,0 -3,-1 -5,-1l-6 23c-1,1 0,3 2,3 1,1 2,0 3,-2l6 -23z"/><path fill="#303030" d="M250 102c-2,0 -3,0 -5,0l0 26c0,3 2,5 5,5 3,0 5,-2 5,-5l0 -26c-2,0 -3,0 -5,0zm-80 20c-3,1 -6,3 -8,5l13 22c1,3 4,4 7,2 2,-1 3,-4 1,-7l-13 -22zm-63 59c-2,3 -4,6 -5,9l22 13c3,2 6,1 7,-2 2,-2 1,-5 -1,-7l-23 -13zm-25 84c-1,2 -1,4 -1,5 0,2 0,3 1,5l26 0c3,0 5,-2 5,-5 0,-3 -2,-5 -5,-5l-26 0zm19 85c2,3 4,6 5,9l24 -14c2,-1 3,-4 1,-7 -1,-2 -4,-3 -7,-2l-23 14zm60 64c3,1 6,3 9,5l13 -24c2,-2 1,-5 -1,-7 -3,-1 -6,0 -7,2l-14 24zm84 25c2,0 3,0 5,0 2,0 3,0 5,0l0 -27c0,-3 -2,-5 -5,-5 -3,0 -5,2 -5,5l0 27zm85 -20c3,-2 6,-4 9,-5l-14 -24c-1,-2 -4,-3 -7,-2 -2,2 -3,5 -1,7l13 24zm64 -60c1,-3 3,-6 5,-9l-23 -14c-3,-1 -6,0 -7,2 -2,3 -1,6 1,7l24 14zm24 -84c1,-2 1,-3 1,-5 0,-1 0,-3 -1,-5l-26 0c-3,0 -5,2 -5,5 0,3 2,5 5,5l26 0zm-20 -85c-1,-3 -3,-6 -5,-9l-23 13c-2,2 -3,5 -1,7 1,3 4,4 7,2l22 -13zm-60 -63c-2,-2 -5,-4 -8,-5l-13 22c-2,3 -1,6 1,7 3,2 6,1 7,-2l13 -22z"/><path fill="#ED2F00" d="M204 263c-3,-1 -5,-4 -4,-7 1,-2 4,-4 7,-3l160 43c3,0 4,3 3,6 0,3 -3,5 -6,4l-160 -43z"/><path fill="#303030" d="M275 297c2,3 0,8 -3,10 -4,3 -9,1 -11,-2l-68 -118c-2,-3 -1,-8 3,-10 4,-3 9,-1 11,3l68 117z"/><circle fill="#303030" cx="250" cy="270" r="20"/></svg>