<svg xmlns="http://www.w3.org/2000/svg" viewBox="0 0 511.995 511.995"><path d="m406.823 177.381v131.75c0 6.171-3.688 11.744-9.375 14.144-40.909 17.317-86.309 33.058-136.211 47.223-1.37.381-2.792.577-4.203.577s-2.833-.196-4.203-.577c-49.902-14.165-95.302-29.906-136.211-47.223-5.676-2.4-9.364-7.974-9.364-14.144v-127.083l149.778-2.328z" fill="#365e7d"/><path d="m257.035 179.72v191.356c-1.411 0-2.833-.196-4.203-.577-49.902-14.165-95.302-29.906-136.211-47.223-5.676-2.4-9.364-7.974-9.364-14.144v-127.084z" fill="#2b4d66"/><path d="m406.823 182.532v55.516c-43.031 14.989-88.142 29.247-135.324 42.773-10.127 2.905-20.882 2.905-31.009 0-46.42-13.31-90.831-27.32-133.233-42.042v-51.581z" fill="#2b4d66"/><path d="m497.518 140.936c-69.138-27.725-144.479-53.279-226.023-76.662-10.125-2.903-20.878-2.903-31.003 0-81.542 23.383-156.883 48.937-226.021 76.662-19.302 7.74-16.889 32.637 2.413 40.377 69.138 27.725 142.066 50.478 223.61 73.86 10.125 2.903 20.878 8.118 31.003 5.214 81.544-23.383 156.884-48.936 226.023-76.662 19.3-7.739 19.3-35.048-.002-42.789z" fill="#365e7d"/><path d="m276.972 258.441c.227.062.443.124.67.185-2.04.587-4.09 1.174-6.14 1.762-10.126 2.905-20.882 2.905-31.008 0-81.539-23.385-156.886-48.934-226.022-76.656-19.295-7.747-19.295-35.057 0-42.794 1.617-.649 3.235-1.298 4.863-1.947-10.22 11.064-7.387 30.648 8.478 37.004 69.135 27.733 167.62 59.061 249.159 82.446z" fill="#2b4d66"/><path d="m379.998 380.396c-4.268 0-7.726-3.459-7.726-7.726v-146.397l-119.6-56.966c-3.852-1.835-5.488-6.445-3.653-10.298 1.836-3.853 6.447-5.489 10.299-3.653l124.003 59.064c2.69 1.281 4.403 3.995 4.403 6.975v151.274c0 4.267-3.459 7.727-7.726 7.727z" fill="#f6e781"/><path d="m379.997 367.518c-15.526 0-28.113 12.587-28.113 28.113v54.265h56.226v-54.265c.001-15.526-12.586-28.113-28.113-28.113z" fill="#f6e781"/><path d="m389.166 369.068c-11.021 3.793-18.936 14.264-18.936 26.563v54.266h-18.345v-54.266c0-15.515 12.588-28.102 28.102-28.102 3.215.001 6.307.536 9.179 1.539z" fill="#f1cb86"/></svg>