<svg xmlns="http://www.w3.org/2000/svg" viewBox="-90 0 735 735"><path d="M340.5,238.7c-4-17.2,8-66.2,7.8-67.6s3.3-8.8,4.9-11.3c5.2-8.3,10.7-16.4,16.1-24.5q23.3-34.4,46.4-68.8c7.1-10.5,6.9-20.2,0-28.9-10.8-13.8-25.4-14.5-42.1,2-3.4,3.5-27.9,26.4-41.9,22.7s-30.9-30.5-30.9-46a30.1,30.1,0,0,0-16.9-14c-20.1-7-37.5,2.2-48,25.5.7,3.7-15.9,42.2-27.4,45.1-16.8,4.1-34.4-3.1-43.1-15.2-9.7-8.2-21-7.9-30.5,1s-9.2,21.5-2.3,31.3c15.7,22.3,31.3,44.6,47.1,66.9a40.1,40.1,0,0,1,7.9,22.5l2,29.5c-.2,15.9-3.2,30.7-16,41.9-22,19.1-42.8,39.3-61.7,61.4C69.1,362.3,34.3,416.9,13.8,480.1,2.8,514.3-2.7,549.3,1.3,585.2c4.3,38.7,20.5,71.8,48,99.3,19.3,15.1,39.3,28.5,62.9,36.7,15.9,5.5,32,9.8,48.4,9.9,67.8.7,135.5.2,203.3.1,41.9-4.3,98.8-29.1,118.3-78.6C562.1,450.4,347.1,266.4,340.5,238.7Z" fill="#e3b768"/><path d="M531.7,520.6c-11.7-67.1-43.6-125.4-84.2-179.2-26.5-35.1-56.8-66.6-90.1-95.2-14.8-12-10.6-22.4-9.5-37.2.1-.9.2-20.5.2-21.8-.3-6.3-27.7-10.7-26.2-14.8,10-27,48.3-118.6,51.7-132.8-2,1-5.4,3.1-7.5,4-23.5,10-42.9,3.6-56.7-15.5l-8.6-11.8c-2.5,14.9-5.1,29.8-7.6,44.7-4.2,24.8-11.6,85.1-15.6,115.6l-25.9,1.2c-.6-14.6-13.5-137.2-15.8-150-5.5,11.7-10.8,23.4-22.6,30.4-16,9.6-32,7.8-47.9-.5,5.5,10.8,45.6,117.1,46.8,120.7,3.6,11.3,99.4,25.7,121.4,30.3a41.8,41.8,0,0,0-3.3,18l6.5,34c18.8,18.3,39.5,55.4,54.4,80,23.2,38.1,42.8,77.5,56.4,120.3a406.3,406.3,0,0,1,18.1,97.3c1.8,26.1-2.9,51.7-11.6,76.5-12.2,35-33.5,62.7-65.3,82.1-8.1,5.1-16.6,9.6-24.9,14.3,46.2.7,86-15.6,120.5-45.8a12.3,12.3,0,0,1,2.5-1.4C532.5,637.9,542.4,581.7,531.7,520.6Z" fill="#cba35d"/><path d="M349.6,248.7c4,4.2,6.5,8.9,3.1,13.8s-10.3,3.8-14.3-.2c-13.7-17.1-36.4-37.5-51-53.8-7.1.1-34.8-.5-48.3,0-3.5,5.2-30.3,48.5-38.2,59.3-3.4,4.6-7,9.8-13.2,5.4s-2.6-9,.8-13.8c9.8-13.8,25.5-36.5,35-50.9-6.9-.4-26.2.3-35.5.3-5.5,0-10.4-3.2-9.9-10.1a5.3,5.3,0,0,1,1.7-3.4,10,10,0,0,1-2.2-5.9c-.2-3.9-.1-9.2,10-10l11.3-.4c17.7-1.2,141.5-7.5,152.1-8.1,4.9-.2,7.5,3.9,7.1,8.4-.6,6.3-5.1,7.2-10,7.9-27.4.3-54.7,2.4-81.9,4.9h82.2c4.9.5,9,2.4,9.1,7.9s-4.1,9.2-9.6,9c-11.7-.3-23.5-.5-37-.5" fill="#524f4c"/><path d="M267.4,643.3c-19.2.2-19.4.5-19.2-13s.4-12.3,0-22.3c-13.3-1.4-40-8.4-51-16.6-3.8-2.7-4.8-5.3-3-9.9,4-10.3,6.7-18.2,10.2-28.8,1.9-5.7,7.1-7.4,11.8-3.8,12.6,9.4,25,13.4,40.7,14.9,10.4,1.1,20.3-.3,28.3-7.8s8.5-18.9,1.2-27.2c-5.6-6.6-13-10.8-20.9-14.2-13.7-6-27.8-11.4-40.2-20.2-20-14.4-30.5-33.3-27.7-58s26.4-51.5,50.6-61.1c.1-9.5,0-19.5,0-25.4s2-7,6.9-7c10.1.2,20.2.2,30.4.1,4.8-.1,5.9,2,6,6.5.3,9.8-.1,21.1,0,27.6,7.8,1.8,14.4,2.8,24.4,6.3,23.4,8.4,23.4,8.4,14.9,31.1-2.7,7.3-4.1,14.2-10.2,17.1s-12-2-18.9-4.8c-10.5-4.1-21.3-6.5-32.6-5.4-8.9.8-16.8,3.8-19.3,13.6s3,16.3,10.8,21c15.5,9.3,33,14.3,48.4,23.9,23.3,14.6,35.8,35.5,34.4,62.9-1.5,29.2-15.9,56.3-51.9,64.2.1,1.7,0,22.8,0,24.4C291.5,642.8,288.3,643.2,267.4,643.3Z" fill="#4e4d4c"/></svg>