<svg xmlns="http://www.w3.org/2000/svg" viewBox="0 0 512 512"><path d="m476.845 156.89a91.85 91.85 0 0 0 -167.155-28.89h-107.379a91.851 91.851 0 0 0 -167.156 28.89c-20.3 89.59-56.149 247.688 33.453 268 48.2 10.924 80.822-29.821 103.857-83.73 1.178.06 2.342.178 3.535.178a69.075 69.075 0 0 0 49.958-21.338h60.083a69.075 69.075 0 0 0 49.959 21.333c1.193 0 2.357-.119 3.535-.178 23.035 53.91 55.66 94.654 103.857 83.73 89.602-20.308 53.758-178.405 33.453-267.995z" fill="#2d4a60"/><path d="m154.667 159.987h-15.99v-15.987a16 16 0 1 0 -32 0v15.987h-15.984a16 16 0 0 0 0 32h15.984v15.99a16 16 0 1 0 32 0v-15.99h15.99a16 16 0 0 0 0-32z" fill="#eaeff0"/><circle cx="389.333" cy="144" fill="#00cf66" r="16"/><circle cx="389.333" cy="208" fill="#009ae0" r="16"/><circle cx="421.333" cy="176" fill="#fd3730" r="16"/><circle cx="357.333" cy="176" fill="#fac100" r="16"/><circle cx="176" cy="272" fill="#8fa5a5" r="37.333"/><circle cx="176" cy="272" fill="#7b8c8c" r="37.333"/><circle cx="336" cy="272" fill="#7b8c8c" r="37.333"/><circle cx="186.667" cy="261.333" fill="#8fa5a5" r="16"/><circle cx="346.667" cy="261.333" fill="#8fa5a5" r="16"/><rect fill="#eaeff0" rx="5.333" x="202.667" y="202.667"/><rect fill="#eaeff0" rx="5.333" x="266.667" y="202.667"/><rect fill="#eaeff0" height="21.333" rx="5.333" width="42.667" x="202.667" y="202.667"/><rect fill="#eaeff0" height="21.333" rx="5.333" width="42.667" x="266.667" y="202.667"/></svg>