<svg xmlns="http://www.w3.org/2000/svg" viewBox="0 0 512 512"><path style="fill:#518EF8!important;" d="M441.412,140.235v338.781c0,18.219-14.778,32.983-32.983,32.983H103.572 c-18.219,0-32.983-14.764-32.983-32.983V32.983C70.588,14.764,85.352,0,103.572,0h197.605L441.412,140.235z"/><rect x="161.18" y="257.054" style="fill:#FFFFFF!important;" width="189.626" height="21.071"/><rect x="161.18" y="304.112" style="fill:#FFFFFF!important;" width="189.626" height="21.071"/><rect x="161.18" y="351.171" style="fill:#FFFFFF!important;" width="189.626" height="21.071"/><rect x="161.18" y="398.23" style="fill:#FFFFFF!important;" width="134.855" height="21.071"/><polygon style="fill:#3A5BBC!important;" points="320.31,137.188 441.412,187.079 441.412,140.235 372.751,119.962 "/><path style="fill:#ACD1FC!important;" d="M441.412,140.235H334.16c-18.22,0-32.983-14.764-32.983-32.983V0L441.412,140.235z"/></svg>