<svg xmlns="http://www.w3.org/2000/svg" viewBox="0 0 800 744.94"><path style="fill:#fff; stroke-width:0px;" d="M786.57,336.65l-121.24-121.24V75.35c0-25.32-20.52-45.85-45.88-45.85s-45.82,20.52-45.82,45.85v48.35l-90.28-90.28c-44.63-44.61-122.24-44.53-166.77.08L13.42,336.65c-17.9,17.93-17.9,46.95,0,64.85,17.9,17.93,46.97,17.93,64.87,0L381.42,98.34c9.87-9.82,27.28-9.82,37.1-.03l303.18,303.19c8.99,8.96,20.71,13.42,32.43,13.42s23.48-4.46,32.44-13.42c17.9-17.9,17.9-46.92,0-64.85Z"/><path style="fill:#fff; stroke-width:0px;" d="M415.92,185.37c-8.81-8.8-23.07-8.8-31.85,0L117.42,451.95c-4.21,4.21-6.6,9.95-6.6,15.95v194.43c0,45.62,36.99,82.62,82.62,82.62h132.02v-204.46h149.05v204.46h132.02c45.62,0,82.61-36.99,82.61-82.61v-194.43c0-6-2.37-11.74-6.6-15.95L415.92,185.37Z"/></svg>