<svg xmlns="http://www.w3.org/2000/svg" viewBox="0 0 2203.35 1005.18"><path d="m1875.82,175.06c-128.35,0-239.44,73.84-293.16,181.36C1520.06,150.14,1328.41,0,1101.68,0s-418.38,150.14-480.99,356.41c-53.71-107.51-164.8-181.36-293.16-181.36C146.64,175.06,0,321.7,0,502.59s146.64,327.53,327.53,327.53c128.35,0,239.44-73.84,293.16-181.36,62.61,206.28,254.26,356.41,480.99,356.41s418.38-150.14,480.99-356.41c53.71,107.51,164.8,181.36,293.16,181.36,180.89,0,327.53-146.64,327.53-327.53s-146.64-327.53-327.53-327.53ZM327.53,638.12c-74.85,0-135.53-60.68-135.53-135.53s60.68-135.53,135.53-135.53,135.53,60.68,135.53,135.53-60.68,135.53-135.53,135.53Zm774.15,177.53c-172.9,0-313.06-140.16-313.06-313.06s140.16-313.06,313.06-313.06,313.06,140.16,313.06,313.06-140.16,313.06-313.06,313.06Zm774.15-177.53c-74.85,0-135.53-60.68-135.53-135.53s60.68-135.53,135.53-135.53,135.53,60.68,135.53,135.53-60.68,135.53-135.53,135.53Z" fill="#fff"/></svg>