<svg xmlns="http://www.w3.org/2000/svg" viewBox="0 0 98.08 111.99"><path d="M48.83,0h.26c1.33.63,2.63,1.34,3.89,2.11,14.48,8.33,28.95,16.65,43.43,24.98,1.15.61,1.8,1.86,1.66,3.15-.03,17.56,0,35.11-.02,52.66-.19.84-.7,1.57-1.42,2.03-15.39,8.86-30.79,17.72-46.19,26.58-.76.58-1.8.64-2.63.15-15.41-8.84-30.81-17.69-46.2-26.56-1.02-.48-1.65-1.53-1.6-2.66V29.78c-.08-1.13.53-2.18,1.55-2.68C16.01,18.79,30.47,10.47,44.93,2.14c1.29-.74,2.55-1.52,3.9-2.14" style="fill:#019639; stroke-width:0px;"/><path d="M20.1,34.15v43.44c-.04,1.62.58,3.19,1.71,4.35,2.21,2.18,5.64,2.53,8.24.82,1.71-1.16,2.74-3.1,2.74-5.17,0-10.48-.02-20.96,0-31.44,9.55,11.44,19.13,22.86,28.72,34.27,2.71,2.74,6.63,3.92,10.4,3.13,2.69-.53,4.72-2.76,5-5.48.02-14.78.02-29.55,0-44.32-.3-3.48-3.37-6.06-6.85-5.75-3.06.27-5.49,2.69-5.75,5.75,0,10.65-.06,21.28,0,31.93-9.38-11.06-18.65-22.22-28-33.33-2.51-3.22-6.56-4.83-10.6-4.21-3.1.35-5.48,2.9-5.61,6.02Z" style="fill:#fff; stroke-width:0px;"/></svg>