<svg xmlns="http://www.w3.org/2000/svg" viewBox="0 0 1000 541"><path style="fill:#fff; stroke-width:0px;" d="M453,0c-24.67,0-47.33,6-68,18s-37,28.33-49,49-18,43.33-18,68c0,30,9.33,57,28,81,18.67-22,41.33-39.17,68-51.5s55-18.5,85-18.5,58.33,6,85,18c2-10,3-19.67,3-29,0-24.67-6-47.33-18-68s-28.33-37-49-49C499.33,6,477,0,453,0ZM277,62c-19.33,0-35.83,7-49.5,21s-20.5,30.67-20.5,50c0,12,3,23.33,9,34,24.67-14,51-21,79-21l9,1-1-12c0-21.33,4.33-41.67,13-61-12-8-25-12-39-12ZM609,111h-9c2,9.33,3,17.33,3,24,0,12-1.67,24-5,36,34.67,19.33,61.67,46.33,81,81,20-10.67,41-16.67,63-18-2-22.67-9-43.33-21-62s-27.83-33.5-47.5-44.5-41.17-16.5-64.5-16.5ZM500,161c-34.67,0-66.33,8.5-95,25.5s-51.5,39.83-68.5,68.5-25.5,60-25.5,94,8.5,65.5,25.5,94.5,39.83,52,68.5,69,60.17,25.5,94.5,25.5,65.83-8.5,94.5-25.5,51.5-40,68.5-69,25.5-60.5,25.5-94.5-8.5-65.33-25.5-94-39.83-51.5-68.5-68.5-60-25.5-94-25.5ZM295,162c-26,0-50.33,6.5-73,19.5s-40.5,30.67-53.5,53-19.5,46.83-19.5,73.5c0,23.33,5.17,45.17,15.5,65.5s24.5,37.17,42.5,50.5c7.33-14.67,18-26.33,32-35s29.67-13,47-13c2.67,0,6.67.33,12,1-1.33-8.67-2-18-2-28,0-44.67,13.33-85,40-121-16-19.33-26-41.33-30-66h-11ZM753,249c-23.33,0-46,5.67-68,17,12.67,26.67,18.67,54.33,18,83,.67,27.33-4.33,53.33-15,78s-25,46.67-43,66c13.33,14.67,29.5,26.33,48.5,35s38.83,13,59.5,13c26.67,0,51.17-6.5,73.5-19.5s40-30.67,53-53,19.5-46.83,19.5-73.5-6.5-51.17-19.5-73.5-30.67-40-53-53-46.83-19.5-73.5-19.5ZM130,268h-2c-23.33,1.33-44.83,8.17-64.5,20.5-19.67,12.33-35.17,28.5-46.5,48.5C5.67,357,0,379,0,403s6,46.33,18,67,28.33,37,49,49c20.67,12,43.33,18,68,18,28,0,53.33-8,76-24-9.33-14.67-14-30.67-14-48,0-8.67,1.33-17.33,4-26-20.67-15.33-37-34.33-49-57s-18-47.33-18-74c0-13.33,1.67-26.67,5-40h-9ZM926,384c-3.33,0-7,.33-11,1v10c0,20.67-4,40.5-12,59.5s-19,35.83-33,50.5c15.33,17.33,34,26,56,26,20.67,0,38.17-7.17,52.5-21.5s21.5-31.67,21.5-52-7.17-37.67-21.5-52-31.83-21.5-52.5-21.5ZM286,391c-20.67,0-38.17,7.33-52.5,22s-21.5,32.17-21.5,52.5,7.17,37.67,21.5,52,31.83,21.5,52.5,21.5c15.33,0,29.17-4.33,41.5-13s21.17-20,26.5-34c-27.33-28-45-61-53-99-5.33-1.33-10.33-2-15-2Z"/></svg>