<svg xmlns="http://www.w3.org/2000/svg" viewBox="0 0 496.268 496.268"><path d="m420.912 147.134.208-14.27c.421-14.694-12.131-26.433-26.765-25.031l-.048.005c-1.012.097-1.898-.672-1.946-1.687l-.36-7.744c-.636-13.695-12.409-24.189-26.086-23.252l-3.935.269c-.917.063-1.73-.583-1.877-1.49l-1.929-11.941c-3.299-20.42-23.362-33.646-43.429-28.629l-2.33.583c-.923.231-1.884-.194-2.335-1.031l-.294-.547c-2.762-5.13-8.118-8.329-13.945-8.329h-1.826c-.629 0-1.223-.284-1.618-.773l-2.451-3.038c-21.763-26.97-62.864-26.97-84.627 0l-2.451 3.038c-.395.489-.989.773-1.618.773h-1.826c-5.826 0-11.182 3.199-13.945 8.329l-.294.547c-.451.837-1.412 1.262-2.335 1.031l-2.33-.583c-20.067-5.017-40.13 8.209-43.429 28.629l-1.929 11.941c-.147.907-.96 1.553-1.877 1.49l-3.935-.269c-13.678-.936-25.451 9.558-26.086 23.252l-.36 7.744c-.047 1.015-.934 1.784-1.946 1.687l-.048-.005c-14.633-1.402-27.185 10.337-26.765 25.031l.208 14.27 4.576 29.009h338.431z" fill="#fddeb0"/><path d="m115.127 159.608-.208-14.27c-.421-14.694 12.131-26.433 26.765-25.031 1.037.1 1.947-.688 1.996-1.729l.357-7.697c.636-13.695 12.409-24.189 26.086-23.253l3.935.269c.917.063 1.73-.583 1.877-1.49l1.929-11.941c3.299-20.42 23.362-33.646 43.429-28.629l1.728.432c1.277.319 2.608-.269 3.232-1.427 2.762-5.13 8.118-8.329 13.945-8.329h1.826c.629 0 1.223-.284 1.618-.773l2.451-3.038c9.552-11.837 22.856-18.477 36.588-19.923-22.726-19.22-57.835-16.746-77.359 7.45l-2.451 3.038c-.395.489-.989.773-1.618.773h-1.826c-5.826 0-11.182 3.199-13.945 8.329l-.294.547c-.451.837-1.412 1.262-2.335 1.031l-2.33-.583c-20.067-5.017-40.13 8.209-43.429 28.629l-1.929 11.941c-.147.907-.96 1.553-1.877 1.49l-3.935-.269c-13.678-.936-25.451 9.557-26.086 23.252l-.36 7.743c-.047 1.015-.934 1.784-1.946 1.688l-.048-.005c-14.633-1.402-27.185 10.337-26.765 25.031l.208 14.27 4.577 29.009h38.803z" fill="#fdd79b"/><path d="m417.797 162.214h-344.443v20.944l47.28 302.48c.95 6.12 6.22 10.63 12.41 10.63h36.32l4.875-7.427 33.901-2.583 13.904 10.01h51.18l8.163-7.762 41.701 1.438 2.816 6.324h36.32c6.19 0 11.46-4.51 12.41-10.63l47.28-302.48z" fill="#f37c7c"/><path d="m421.914 183.158-4.117-20.944h-295.718v12.761l-2.018-12.761h-46.707v20.944l47.28 302.48c.95 6.12 6.22 10.63 12.41 10.63h36.32l3.17-8.803 45.221-.626 4.289 9.429h51.18l13.653-10.899 31.504 2.614 7.522 8.285h36.32c6.19 0 11.46-4.51 12.41-10.63l2.545-16.282-158.132.107c-29.023.02-53.744-21.085-58.276-49.752l-27.357-173.038c-3.612-22.848 14.046-43.518 37.178-43.518h248.196z" fill="#ee6161"/><path d="m430.525 183.154h-364.782c-6.149 0-11.134-4.985-11.134-11.134v-11.096c0-6.149 4.985-11.134 11.134-11.134h364.782c6.149 0 11.134 4.985 11.134 11.134v11.096c0 6.149-4.985 11.134-11.134 11.134z" fill="#f9f7f8"/><path d="m212.044 183.158 10 313.11h-52.68l-30.55-313.11z" fill="#f9f7f8"/><path d="m212.683 203.154-.639-19.996h-73.23l3.23 33.108c6.854-7.978 17.02-13.112 28.548-13.112z" fill="#efedef"/><path d="m356.454 183.158-30.55 313.11h-52.68l10-313.11z" fill="#f9f7f8"/><path d="m356.454 183.158h-73.23l-.639 19.996h71.918z" fill="#efedef"/><path d="m247.634 84.832c-9.231 0-17.943-4.044-23.901-11.096-2.673-3.164-2.275-7.896.889-10.569s7.896-2.275 10.569.889c3.102 3.671 7.637 5.777 12.443 5.777s9.341-2.105 12.443-5.777c2.673-3.164 7.406-3.563 10.569-.889 3.164 2.673 3.562 7.405.889 10.569-5.958 7.052-14.67 11.096-23.901 11.096z" fill="#fdd79b"/><path d="m164.377 124.182c-1.709 0-3.428-.581-4.836-1.771-3.164-2.673-3.562-7.405-.889-10.569 5.958-7.051 14.67-11.096 23.901-11.096 9.231 0 17.943 4.044 23.9 11.096 2.673 3.164 2.275 7.896-.889 10.569s-7.896 2.275-10.569-.889c-3.102-3.671-7.637-5.777-12.443-5.777s-9.342 2.105-12.443 5.777c-1.482 1.756-3.6 2.66-5.732 2.66z" fill="#fdd79b"/><path d="m331.891 124.182c-2.132 0-4.249-.904-5.733-2.66-3.102-3.671-7.637-5.777-12.443-5.777s-9.341 2.105-12.443 5.777c-2.672 3.164-7.405 3.563-10.569.889-3.164-2.673-3.562-7.405-.889-10.569 5.958-7.052 14.669-11.096 23.9-11.096 9.232 0 17.944 4.044 23.902 11.096 2.673 3.164 2.275 7.896-.889 10.569-1.408 1.189-3.127 1.771-4.836 1.771z" fill="#fdd79b"/><path d="m162.701 427.978 6.663 68.29h52.68l-.856-26.807-2.141.001c-26.152.018-48.803-17.12-56.346-41.484z" fill="#efedef"/><path d="m274.081 469.425-.857 26.843h52.68l2.623-26.879z" fill="#efedef"/></svg>