<svg xmlns="http://www.w3.org/2000/svg" viewBox="0 0 498.799 498.799"><path d="m420.009 116.9-3.105-19.66c-2.009-12.717-10.791-23.327-22.908-27.677l-11.368-4.081-4.646-9.734c-6.025-12.624-18.945-20.491-32.927-20.048l-13.543.429-5.059-9.594c-7.011-13.297-21.683-20.685-36.54-18.399l-14.828 2.281-4.674-3.47c-12.476-9.262-29.546-9.262-42.022 0l-4.674 3.47-14.828-2.281c-14.857-2.286-29.529 5.102-36.541 18.399l-5.059 9.594-13.543-.429c-13.981-.442-26.901 7.424-32.927 20.048l-4.646 9.734-11.368 4.081c-12.118 4.35-20.9 14.96-22.908 27.677l-3.105 19.66v72.913h341.219z" fill="#fdd79b"/><path d="m132.87 131.933 3.105-19.66c2.009-12.717 10.791-23.327 22.908-27.677l1.216-.437c6.503-2.335 11.821-7.143 14.798-13.378 6.025-12.624 18.945-20.491 32.927-20.048l2.702.086c6.633.21 12.804-3.381 15.9-9.251 7.011-13.297 21.683-20.685 36.541-18.399l14.828 2.281 4.674-3.47c11.827-8.78 27.802-9.23 40.058-1.364-7.789-9.49-20.14-14.399-32.613-12.48l-14.828 2.281-4.674-3.47c-12.476-9.262-29.546-9.262-42.022 0l-4.674 3.47-14.828-2.281c-14.857-2.286-29.53 5.102-36.541 18.399l-5.059 9.594-13.544-.429c-13.981-.443-26.901 7.424-32.926 20.047l-4.647 9.735-11.368 4.081c-12.118 4.35-20.9 14.96-22.908 27.677l-3.105 19.66v72.913h54.08z" fill="#fccd7f"/><path d="m363.934 164.789c-4.143 0-7.5-3.357-7.5-7.5v-47.384c0-11.093-9.025-20.118-20.118-20.118h-3.465c-4.143 0-7.5-3.357-7.5-7.5s3.357-7.5 7.5-7.5h3.465c19.364 0 35.118 15.754 35.118 35.118v47.384c0 4.143-3.357 7.5-7.5 7.5z" fill="#fbc56d"/><path d="m426.619 129.118h-323.333l-35.836 28.171 31.12 317.5c1.33 13.62 12.78 24.01 26.47 24.01h5.69l36.217-39.608 10.063 39.608h46.7l23.155-27.075 28.225 27.075h46.7l23.14-24.198 23.14 24.198h5.69c13.69 0 25.14-10.39 26.47-24.01l31.12-317.5z" fill="#faf7f7"/><path d="m135.864 151.998c-4.143 0-7.5-3.357-7.5-7.5v-34.593c0-19.364 15.754-35.118 35.118-35.118h3.465c4.143 0 7.5 3.357 7.5 7.5s-3.357 7.5-7.5 7.5h-3.465c-11.093 0-20.118 9.025-20.118 20.118v34.593c0 4.143-3.357 7.5-7.5 7.5z" fill="#fbc56d"/><path d="m129.673 157.288 35.836-28.171h-62.224l-35.836 28.171 31.12 317.5c1.33 13.62 12.78 24.01 26.47 24.01h5.69 28.262z" fill="#f3eae6"/><path d="m431.353 157.293h-363.907c-8.678 0-15.713-7.035-15.713-15.713v-8.476c0-8.678 7.035-15.713 15.713-15.713h363.907c8.678 0 15.713 7.035 15.713 15.713v8.476c0 8.678-7.035 15.713-15.713 15.713z" fill="#f3eae6"/><path d="m129.359 154.388v-22.001c0-7.04 4.631-12.998 11.012-14.996h-72.925c-8.678 0-15.713 7.035-15.713 15.713v8.476c0 8.678 7.035 15.713 15.713 15.713h62.193c-.177-.943-.28-1.912-.28-2.905z" fill="#e1d3ce"/><path d="m130.729 157.289h46.28v341.51h-46.28z" fill="#f37c7c"/><path d="m130.729 498.798h28.262l-28.262-329.205z" fill="#ee6161"/><path d="m223.709 157.289h51.38v341.51h-51.38z" fill="#f37c7c"/><path d="m321.789 157.289h46.28v341.51h-46.28z" fill="#f37c7c"/><path d="m313.526 383.885h-128.253c-12.135 0-21.972-9.837-21.972-21.972v-71.329c0-12.135 9.837-21.972 21.972-21.972h128.253c12.135 0 21.972 9.837 21.972 21.972v71.329c0 12.135-9.837 21.972-21.972 21.972z" fill="#f9f3f1"/><path d="m304.123 333.749h-109.206c-4.143 0-7.5-3.357-7.5-7.5s3.357-7.5 7.5-7.5h109.206c4.143 0 7.5 3.357 7.5 7.5s-3.357 7.5-7.5 7.5z" fill="#fdd79b"/><path d="m282.502 62.452c-1.589 0-3.19-.503-4.55-1.542l-7.215-5.518c-12.136-9.281-29.167-8.583-40.498 1.657l-3.84 3.468c-3.073 2.775-7.815 2.537-10.593-.538-2.776-3.073-2.536-7.816.538-10.593l3.839-3.468c16.695-15.087 41.789-16.114 59.666-2.441l7.214 5.517c3.291 2.517 3.918 7.224 1.402 10.514-1.476 1.93-3.706 2.944-5.963 2.944z" fill="#fbc56d"/></svg>