<svg xmlns="http://www.w3.org/2000/svg" viewBox="35 20 150 150"><path d="m 173,122.1 -17.9,0 -3.1,-19.5 -11.5,19.3 -18.1,0 11,11.6 -9,19.5 19.8,-11.8 15.5,12 -2.9,-19.7" style="fill:#ffffff"/><path d="m 185.5,118.2 -27.1,0 -4.3,-27 -15.8,26.8 -3,0 c -1.8,-3.1 -2.5,-7.6 -2.5,-10.4 0,-4.6 0.3,-9.1 0.3,-15 0,-7.8 -2.3,-11.9 -8.4,-13.4 l 0,-0.2 c 12.9,-1.8 18.8,-10.4 18.8,-22.4 0,-17.1 -11.4,-20.8 -26.3,-20.8 l -40.1,0 -17,80.4 21.3,0 6.2,-29.3 14.2,0 c 7.6,0 10.7,3.7 10.7,10.8 0,5.4 -0.6,9.7 -0.6,13.8 0,1.5 0.3,5.1 1.4,6.5 l 15.4,16.3 -13.3,28.5 28.4,-16.9 21.2,16.3 -3.9,-26.9 24.4,-17.1 z m -77.3,-46.3 -17,0 4.1,-19.4 15.8,0 c 5.6,0 11.5,1.5 11.5,8.3 0,8.7 -6.7,11.1 -14.4,11.1 m 36,69.3 -19.8,11.8 9.1,-19.4 -11,-11.6 18.1,0 11.4,-19.3 3.1,19.5 18,0 -16.2,11.3 2.9,19.8 -15.6,-12.1 z" style="fill:#040301"/></svg>