<svg xmlns="http://www.w3.org/2000/svg" fill="#FFF" viewBox="0 0 512 512"><path d="M415.7,508.2c-2-110.5-39.2-206.7-116-285.9c-76.9-79.3-171.6-119-282.4-121.2c0-31.9,0-63.7,0-95.7 c8.4,0,16.8-0.4,25.2,0.1c26.3,1.4,52.4,5,78.1,10.6c46.8,10.3,91.1,27.2,132.9,50.6c30.2,16.9,58.2,36.7,84.2,59.4 c20.8,18.2,39.9,38.1,57.5,59.5c20.2,24.7,38,50.9,53.2,78.9c20.1,36.8,35.3,75.6,45.8,116.2c10.3,39.9,15.4,80.4,16.4,121.5 c0.1,4.7-0.8,6.4-5.8,6.3c-27.8-0.2-55.6-0.1-83.5-0.1C419.4,508.5,417.7,508.3,415.7,508.2z"/><path d="M17.3,272.5c0-32.3,0-64.1,0-95.8c170.9-4,326.8,145.6,324.9,331.2c-31.4,0-62.7,0-94.5,0c-0.9-63.7-22.3-119.3-66.8-165.2 C136.3,296.7,81.6,273.6,17.3,272.5z"/><path d="M82.5,374.5c36.5-0.1,65.8,29.5,65.8,66.7c0,36.8-29.2,66.7-65.3,66.8c-36.6,0.1-66-29.5-66-66.5 C16.9,404.1,45.7,374.6,82.5,374.5z"/></svg>