<svg xmlns="http://www.w3.org/2000/svg" xmlns:xlink="http://www.w3.org/1999/xlink" viewBox="0 0 307.27 441.71"><defs><linearGradient id="Degradado_sin_nombre_6" data-name="Degradado sin nombre 6" x1=".11" y1="222.65" x2="306.54" y2="221.33" gradientUnits="userSpaceOnUse"><stop offset="0" stop-color="#585858"/><stop offset="1" stop-color="#a1a1a1"/></linearGradient><linearGradient id="Degradado_sin_nombre_26" data-name="Degradado sin nombre 26" x1=".71" y1="30" x2="307.27" y2="30" gradientUnits="userSpaceOnUse"><stop offset="0" stop-color="#585858"/><stop offset="1" stop-color="#9a9a9a"/></linearGradient></defs><path d="M292.96,441.71H92.02L0,355.69V14.32L195.8,1.48l111.48,54.99v370.92c0,7.91-6.41,14.32-14.32,14.32Z" style="fill: url(#Degradado_sin_nombre_6); fill-rule: evenodd;"/><path d="M0,180.2v191.67c0,2.27,1.27,4.36,3.3,5.4l84.6,63.76c4.04,2.08,8.84-.86,8.84-5.4v-197.32L0,180.2Z" style="fill: #464646; fill-rule: evenodd;"/><polygon points="96.74 230.72 0 171.72 0 119.21 96.74 180.21 96.74 230.72" style="fill: #464646; fill-rule: evenodd;"/><polygon points="96.74 171.85 0 112.85 0 60.34 96.74 121.34 96.74 171.85" style="fill: #464646; fill-rule: evenodd;"/><path d="M96.74,111.02L0,52.02V0l93.94,58.76c1.74,1.09,2.8,3,2.8,5.05v47.21Z" style="fill: #464646; fill-rule: evenodd;"/><path d="M305.27,52.57L204.8,1c-1.08-.66-2-1-3.69-1H.94c-.24,0-.32.32-.1.43l94.37,58.52,3.73,1.06,204.66-.47c3.86,0,5.11-5.2,1.68-6.96Z" style="fill: url(#Degradado_sin_nombre_26); fill-rule: evenodd;"/><rect x="114.51" y="111.24" width="175" height="10" style="fill: #464646;"/><rect x="114.51" y="171.85" width="175" height="10" style="fill: #464646;"/><rect x="114.51" y="230.72" width="175" height="10" style="fill: #464646;"/><rect x="114.51" y="408.28" width="175" height="5" style="fill: #464646;"/><rect x="170.77" y="111.24" width="62.47" height="10" style="fill: #88ff2c;"/><rect x="170.77" y="171.85" width="62.47" height="10" style="fill: #88ff2c;"/><rect x="170.77" y="230.72" width="62.47" height="10" style="fill: #88ff2c;"/></svg>