<svg xmlns="http://www.w3.org/2000/svg" viewBox="0 0 400 400"><rect width="120" height="120" fill="#e9492b"/><path d="m21.23,18.73h77.53v20.38h-26.01v62.16h-25.51v-62.16h-26.01v-20.38Z" fill="#fff"/><rect x="139.99" width="119.77" height="120" fill="#ee7a40"/><path d="m187.1,18.73h25.56v82.55h-25.56V18.73Z" fill="#fff"/><rect x="280" width="120" height="120" fill="#f2973f"/><path d="m300.53,18.73h23.82l31.08,45.67V18.73h24.04v82.55h-24.04l-30.91-45.32v45.32h-23.99V18.73Z" fill="#fff"/><rect y="140" width="120" height="120" fill="#28ab5b"/><path d="m16.25,158.73h25.51v31.19l26.72-31.19h33.92l-30.12,31.16,31.47,51.39h-31.41l-17.4-33.95-13.18,13.8v20.14h-25.51v-82.55Z" fill="#fff"/><rect x="139.99" y="140" width="120" height="120" fill="#8dbf1e"/><path d="m165.19,158.73h68.36v17.62h-42.79v13.12h39.7v16.84h-39.7v16.27h44.03v18.69h-69.6v-82.54Z" fill="#fff"/><rect x="280" y="140" width="120" height="120" fill="#ceca39"/><path d="m299.4,241.27v-82.54h42.51c7.88,0,13.91.68,18.07,2.03,4.17,1.35,7.53,3.86,10.08,7.52,2.55,3.66,3.83,8.12,3.83,13.37,0,4.58-.98,8.53-2.93,11.85-1.95,3.32-4.64,6.02-8.06,8.08-2.18,1.31-5.16,2.4-8.96,3.27,3.04,1.01,5.25,2.03,6.64,3.04.94.68,2.3,2.12,4.08,4.34,1.78,2.22,2.97,3.93,3.57,5.13l12.35,23.92h-28.82l-13.63-25.22c-1.73-3.27-3.27-5.39-4.62-6.36-1.84-1.28-3.92-1.91-6.25-1.91h-2.25v33.5h-25.62Zm25.62-49.1h10.75c1.16,0,3.42-.38,6.76-1.13,1.69-.34,3.07-1.2,4.14-2.59,1.07-1.39,1.6-2.98,1.6-4.79,0-2.67-.84-4.71-2.53-6.14-1.69-1.43-4.86-2.14-9.52-2.14h-11.21v16.78Z" fill="#fff"/><rect y="280" width="120" height="120" fill="#1261a9"/><path d="m77.79,347.49l22.35,6.76c-1.5,6.27-3.87,11.51-7.09,15.71-3.23,4.2-7.24,7.38-12.02,9.52s-10.88,3.21-18.27,3.21c-8.97,0-16.3-1.3-21.99-3.91-5.69-2.61-10.6-7.19-14.72-13.76-4.13-6.56-6.19-14.97-6.19-25.21,0-13.65,3.63-24.15,10.9-31.48s17.54-11,30.83-11c10.4,0,18.57,2.1,24.52,6.31,5.95,4.2,10.37,10.66,13.26,19.37l-22.52,5.01c-.79-2.51-1.61-4.35-2.48-5.52-1.43-1.95-3.17-3.45-5.24-4.5-2.06-1.05-4.37-1.58-6.93-1.58-5.78,0-10.21,2.33-13.29,6.97-2.33,3.45-3.49,8.87-3.49,16.25,0,9.15,1.39,15.42,4.17,18.81,2.78,3.39,6.68,5.09,11.71,5.09s8.57-1.37,11.06-4.11c2.5-2.74,4.31-6.72,5.43-11.94Z" fill="#fff"/><rect x="139.99" y="280" width="120" height="120" fill="#4493c0"/><path d="m214.08,367.65h-28.96l-4.02,13.63h-26.04l31.02-82.55h27.82l31.02,82.55h-26.71l-4.13-13.63Zm-5.29-17.85l-9.11-29.67-9.02,29.67h18.13Z" fill="#fff"/><rect x="280" y="280" width="120" height="120" fill="#6db3d3"/><path d="m302.02,298.73h37.89c7.47,0,13.5,1.01,18.1,3.04,4.6,2.03,8.4,4.94,11.4,8.73,3,3.79,5.18,8.2,6.53,13.23,1.35,5.03,2.03,10.36,2.03,15.99,0,8.82-1,15.66-3.01,20.52-2.01,4.86-4.8,8.93-8.36,12.22-3.57,3.29-7.4,5.47-11.49,6.56-5.59,1.5-10.66,2.25-15.2,2.25h-37.89v-82.54Zm25.51,18.69v45.1h6.25c5.33,0,9.12-.59,11.37-1.77,2.25-1.18,4.02-3.25,5.29-6.19,1.28-2.95,1.92-7.72,1.92-14.33,0-8.75-1.43-14.73-4.28-17.96-2.85-3.23-7.58-4.84-14.19-4.84h-6.36Z" fill="#fff"/></svg>