<svg xmlns="http://www.w3.org/2000/svg" viewBox="0 0 424.98 552.12"><rect style="fill:#f6f5f5; stroke-width:0px;" x=".03" y="436.35" width="424.94" height="115.76" rx="17.82" ry="17.82"/><path style="fill:#59a329; stroke-width:0px;" d="M58.6,493.53h-15.98v-8h41.6v8h-15.95v43.48h-9.68v-43.48Z"/><path style="fill:#59a329; stroke-width:0px;" d="M136.26,511.05c0,14.27-8.37,26.7-24.92,26.7s-24.27-11.73-24.27-26.48,9.1-26.48,24.94-26.48c14.87,0,24.24,10.67,24.24,26.27ZM97.08,511.04c0,10.42,4.85,18.76,14.64,18.76,10.6,0,14.54-8.82,14.54-18.62s-4.47-18.45-14.65-18.45-14.53,7.96-14.53,18.31Z"/><path style="fill:#59a329; stroke-width:0px;" d="M155.76,515.69v21.31h-9.47v-51.48h21.76c11,0,16.91,6.03,16.91,14.01,0,6.83-3.79,10.68-7.92,12.15,3.12,1,6.9,3.83,6.9,12.94v2.43c0,3.49-.04,7.62.72,9.94h-9.21c-.92-2.23-1.01-6.14-1.01-11.39v-.87c0-6.21-1.64-9.05-10.26-9.05h-8.42ZM155.76,507.9h9.97c6.7,0,9.43-2.54,9.43-7.35s-3.02-7.23-8.99-7.23h-10.41v14.58Z"/><path style="fill:#59a329; stroke-width:0px;" d="M204.88,515.69v21.31h-9.47v-51.48h21.76c11,0,16.91,6.03,16.91,14.01,0,6.83-3.79,10.68-7.92,12.15,3.12,1,6.9,3.83,6.9,12.94v2.43c0,3.49-.04,7.62.72,9.94h-9.21c-.92-2.23-1-6.14-1-11.39v-.87c0-6.21-1.64-9.05-10.26-9.05h-8.42ZM204.88,507.9h9.97c6.7,0,9.43-2.54,9.43-7.35s-3.02-7.23-8.99-7.23h-10.41v14.58Z"/><path style="fill:#59a329; stroke-width:0px;" d="M278.89,514.17h-24.96v14.84h27.49l-1.17,8h-35.71v-51.48h35.48v8h-26.09v12.64h24.96v8Z"/><path style="fill:#59a329; stroke-width:0px;" d="M289.86,537v-51.48h12.16c6.76,11.72,20.07,34.2,22.62,39.8h.13c-.55-5.8-.53-14.45-.53-22.89v-16.92h8.84v51.48h-11.51c-5.97-10.44-20.36-35.62-23.14-41.51h-.13c.37,4.97.46,14.91.46,24.15v17.35h-8.89Z"/><path style="fill:#59a329; stroke-width:0px;" d="M356.76,493.53h-15.98v-8h41.6v8h-15.95v43.48h-9.68v-43.48Z"/><path style="fill:#59a329; fill-rule:evenodd; stroke-width:0px;" d="M318.4,0H17.82C7.98,0,0,7.98,0,17.82v449.35h424.94V106.54L318.4,0Z"/><g><path style="fill:#f6f5f5; fill-rule:evenodd; stroke-width:0px;" d="M228.85,367.23c43.16-6.07,78.72-35.81,93.17-75.68-1.14.42-2.53.92-4.19,1.42-19.42,5.73-33.04-4.53-35.79-6.3-2.75-1.76-5.69-4.67-6.24-4.51-1.78,11.01-11.82,26.29-34.75,33.22-12.56,3.81-26.07,3.89-35.72-1.52l3.18,7.99c1.27,3.18,3.41,8.41,4.74,11.58,0,0,8.33,19.86,15.61,33.8"/><path style="fill:#f6f5f5; fill-rule:evenodd; stroke-width:0px;" d="M122.46,204.14l34.37-6.41c3.13-.57,6.6,1.21,7.7,3.95l23.61,58.98c3.21,6.15,3.87,7.51,5.96,10.13,0,0,16.3,23.3,41.15,17.6,16.76-3.83,24.58-16.42,25.11-25.38.55-2.87-.31-6.49-1.8-9.87l-28.28-64c-1.14-2.58.21-5.11,2.97-5.64l28.66-5.34c2.63-.47,5.71,1.16,6.86,3.66l31.32,67.13c1.26,2.69,3.82,6.92,5.7,9.39,0,0,6.52,9.37,16.95,7.59,2.58,0,5.52-1.4,5.52-1.4.46-4.18.7-8.42.7-12.72,0-64.39-52.15-116.58-116.49-116.58s-116.46,52.19-116.46,116.58c0,51.67,33.58,95.47,80.1,110.77-3.14-6.47-6.32-13.62-8.92-20.61l-48.87-131.46c-1.07-2.89.81-5.74,4.13-6.36"/></g><path style="fill:#467325; fill-rule:evenodd; stroke-width:0px;" d="M318.06,0v94.29c0,9.16,7.43,16.59,16.59,16.59h90.29v-4.34L318.4,0h-.35Z"/></svg>