<svg xmlns="http://www.w3.org/2000/svg" viewBox="0 0 22.2 22"><path d="M15.2,0a.5.5,0,0,1,.5.5h0L15,3.8c0,.1.1.3.2.3h6.5a.5.5,0,0,1,.5.6L20.7,11a.5.5,0,0,1-.6.4l-3.5-.2a4.2,4.2,0,0,0-3.2,1.3,4.1,4.1,0,0,0-.8,4.3,2.8,2.8,0,0,0,3.3,1.7,2,2,0,0,0,1.6-2.2c-.1-1-.5-1.3-1.1-1.3s-.8.3-.8.6a.9.9,0,0,0,.3.7c.3.3-.3,1.2-1.1.7a1.7,1.7,0,0,1-.7-1.8,2.4,2.4,0,0,1,2.6-2.1,3,3,0,0,1,3.1,2.5A4.9,4.9,0,0,1,17,21c-2.8,1.5-7.5,1.4-10.1-1.4A7.5,7.5,0,0,1,5,14a6.3,6.3,0,0,1,.3-1.9.5.5,0,0,0-.3-.5H.5A.6.6,0,0,1,0,11H0L1.4,4.8a.8.8,0,0,1,.8-.6H6.5A.8.8,0,0,0,7,3.7L7.7.6A.8.8,0,0,1,8.5,0Z" fill="#1ac470"/></svg>